<svg width="173" height="36" viewBox="0 0 173 36" fill="none" xmlns="http://www.w3.org/2000/svg">
<path d="M79.3917 30.44H73.3756V14.312H79.0076V19.208H79.3277C79.6797 16.52 81.4397 13.992 85.7597 13.992C90.1117 13.992 92.1596 16.616 92.1596 20.104V30.44H86.1437V22.312C86.1437 20.072 85.3117 19.368 82.6877 19.368C80.0317 19.368 79.3917 20.04 79.3917 22.12V30.44Z" fill="white"/>
<path d="M99.4742 30.76C95.8262 30.76 93.7782 29.096 93.7782 26.344C93.7782 24.072 95.3461 22.44 98.9941 22.088L105.554 21.448V21.128C105.554 19.496 104.85 19.24 102.706 19.24C100.722 19.24 100.114 19.624 100.114 20.968V21.096H94.0982V21.032C94.0982 16.744 97.6821 13.992 103.154 13.992C108.786 13.992 111.506 16.744 111.506 21.256V30.44H105.874V27.048H105.554C104.946 29.32 102.962 30.76 99.4742 30.76ZM99.8261 25.96C99.8261 26.472 100.338 26.568 101.266 26.568C104.178 26.568 105.362 26.216 105.522 24.776L100.594 25.352C100.05 25.416 99.8261 25.608 99.8261 25.96Z" fill="white"/>
<path d="M119.625 30.44H113.609V14.312H119.241V19.208H119.561C119.913 16.52 121.673 13.992 125.993 13.992C130.345 13.992 132.393 16.616 132.393 20.104V30.44H126.377V22.312C126.377 20.072 125.545 19.368 122.921 19.368C120.265 19.368 119.625 20.04 119.625 22.12V30.44Z" fill="white"/>
<path d="M143.548 30.76C137.82 30.76 134.172 27.592 134.172 22.376C134.172 17.128 137.82 13.992 143.548 13.992C149.052 13.992 152.571 16.808 152.571 21.128V21.64H146.588V21.384C146.588 19.72 145.372 19.368 143.42 19.368C141.212 19.368 140.156 19.848 140.156 22.376C140.156 24.872 141.212 25.352 143.42 25.352C145.372 25.352 146.588 25.032 146.588 23.368V23.08H152.571V23.624C152.571 27.912 149.052 30.76 143.548 30.76Z" fill="white"/>
<path d="M163.491 30.76C158.019 30.76 154.179 28.424 154.179 22.376C154.179 17.128 157.987 13.992 163.363 13.992C168.931 13.992 172.482 16.776 172.482 21.96C172.482 22.504 172.45 22.92 172.386 23.496H159.747C159.843 25.448 160.707 25.992 163.267 25.992C165.699 25.992 166.338 25.576 166.338 24.616V24.264H172.354V24.648C172.354 28.232 168.931 30.76 163.491 30.76ZM163.235 18.6C161.027 18.6 160.099 19.08 159.843 20.456H166.658C166.434 19.08 165.475 18.6 163.235 18.6Z" fill="white"/>
<path d="M29.5083 31.1871C24.0363 31.1871 20.1963 28.8511 20.1963 22.8031C20.1963 17.5551 24.0043 14.4191 29.3803 14.4191C34.9483 14.4191 38.5003 17.2031 38.5003 22.3871C38.5003 22.9311 38.4683 23.3471 38.4043 23.9231H25.7643C25.8603 25.8751 26.7243 26.4191 29.2843 26.4191C31.7163 26.4191 32.3563 26.0031 32.3563 25.0431V24.6911H38.3723V25.0751C38.3723 28.6591 34.9483 31.1871 29.5083 31.1871ZM29.2523 19.0271C27.0443 19.0271 26.1163 19.5071 25.8603 20.8831H32.6763C32.4523 19.5071 31.4923 19.0271 29.2523 19.0271Z" fill="white"/>
<path d="M45.4716 31.1871C41.8236 31.1871 39.7756 29.5231 39.7756 26.7711C39.7756 24.4991 41.3436 22.8671 44.9916 22.5151L51.5516 21.8751V21.5551C51.5516 19.9231 50.8476 19.6671 48.7036 19.6671C46.7196 19.6671 46.1116 20.0511 46.1116 21.3951V21.5231H40.0956V21.4591C40.0956 17.1711 43.6796 14.4191 49.1516 14.4191C54.7836 14.4191 57.5036 17.1711 57.5036 21.6831V30.8671H51.8716V27.4751H51.5516C50.9436 29.7471 48.9596 31.1871 45.4716 31.1871ZM45.8236 26.3871C45.8236 26.8991 46.3356 26.9951 47.2636 26.9951C50.1756 26.9951 51.3596 26.6431 51.5196 25.2031L46.5916 25.7791C46.0476 25.8431 45.8236 26.0351 45.8236 26.3871Z" fill="white"/>
<path d="M59.6 31V14.456H65.616V19.032C65.872 18.1467 66.2347 17.336 66.704 16.6C67.184 15.8533 67.792 15.256 68.528 14.808C69.264 14.36 70.144 14.136 71.168 14.136C71.2427 14.136 71.3013 14.136 71.344 14.136C71.3867 14.136 71.408 14.136 71.408 14.136V20.024C71.376 20.0133 71.344 20.008 71.312 20.008C71.2907 20.008 71.2533 20.0027 71.2 19.992C70.0373 19.8747 69.0987 19.8853 68.384 20.024C67.68 20.1627 67.1413 20.392 66.768 20.712C66.3947 21.0213 66.144 21.384 66.016 21.8C65.888 22.2053 65.824 22.6267 65.824 23.064V31H59.6Z" fill="white"/>
<path d="M11.744 31.32C11.072 31.32 10.4693 31.2347 9.936 31.064C9.40267 30.8933 8.928 30.648 8.512 30.328C8.10667 30.008 7.75467 29.6187 7.456 29.16C7.168 28.7013 6.928 28.184 6.736 27.608L6 31H1.6V7.224H7.84V16.344C8.096 15.9173 8.4 15.5653 8.752 15.288C9.104 15 9.48267 14.776 9.888 14.616C10.304 14.4453 10.7253 14.3227 11.152 14.248C11.5787 14.1733 12 14.136 12.416 14.136C14.4533 14.136 16.032 14.8987 17.152 16.424C18.2827 17.9387 18.848 20.0027 18.848 22.616C18.848 24.376 18.5707 25.9067 18.016 27.208C17.472 28.5093 16.672 29.5227 15.616 30.248C14.56 30.9627 13.2693 31.32 11.744 31.32ZM10.272 26.968C10.976 26.968 11.5787 26.6533 12.08 26.024C12.5813 25.384 12.832 24.248 12.832 22.616C12.832 21.08 12.5813 20.0133 12.08 19.416C11.5787 18.8187 10.976 18.52 10.272 18.52C9.792 18.52 9.36533 18.6587 8.992 18.936C8.62933 19.2027 8.34667 19.64 8.144 20.248C7.94133 20.8453 7.84 21.6347 7.84 22.616C7.84 24.248 8.064 25.384 8.512 26.024C8.96 26.6533 9.54667 26.968 10.272 26.968Z" fill="white"/>
</svg>
