<svg width="39" height="36" viewBox="0 0 39 36" fill="none" xmlns="http://www.w3.org/2000/svg">
<path d="M26.016 30.448H20V14.32H25.632V19.216H25.952C26.304 16.528 28.064 14 32.384 14C36.736 14 38.784 16.624 38.784 20.112V30.448H32.768V22.32C32.768 20.08 31.936 19.376 29.312 19.376C26.656 19.376 26.016 20.048 26.016 22.128V30.448Z" fill="white"/>
<path d="M11.744 31.32C11.072 31.32 10.4693 31.2347 9.936 31.064C9.40267 30.8933 8.928 30.648 8.512 30.328C8.10667 30.008 7.75467 29.6187 7.456 29.16C7.168 28.7013 6.928 28.184 6.736 27.608L6 31H1.6V7.224H7.84V16.344C8.096 15.9173 8.4 15.5653 8.752 15.288C9.104 15 9.48267 14.776 9.888 14.616C10.304 14.4453 10.7253 14.3227 11.152 14.248C11.5787 14.1733 12 14.136 12.416 14.136C14.4533 14.136 16.032 14.8987 17.152 16.424C18.2827 17.9387 18.848 20.0027 18.848 22.616C18.848 24.376 18.5707 25.9067 18.016 27.208C17.472 28.5093 16.672 29.5227 15.616 30.248C14.56 30.9627 13.2693 31.32 11.744 31.32ZM10.272 26.968C10.976 26.968 11.5787 26.6533 12.08 26.024C12.5813 25.384 12.832 24.248 12.832 22.616C12.832 21.08 12.5813 20.0133 12.08 19.416C11.5787 18.8187 10.976 18.52 10.272 18.52C9.792 18.52 9.36533 18.6587 8.992 18.936C8.62933 19.2027 8.34667 19.64 8.144 20.248C7.94133 20.8453 7.84 21.6347 7.84 22.616C7.84 24.248 8.064 25.384 8.512 26.024C8.96 26.6533 9.54667 26.968 10.272 26.968Z" fill="white"/>
</svg>
