<svg xmlns="http://www.w3.org/2000/svg" fill="none" viewBox="0 0 24 24">
  <path fill="#201f24" d="M5.25 12a1.5 1.5 0 1 1-3 0 1.5 1.5 0 0 1 3 0m-1.5-7.5a1.5 1.5 0 1 0 0 3 1.5 1.5 0 0 0 0-3m0 12a1.5 1.5 0 1 0 0 3 1.5 1.5 0 0 0 0-3m16.5-6h-12a.75.75 0 0 0-.75.75v1.5a.75.75 0 0 0 .75.75h12a.75.75 0 0 0 .75-.75v-1.5a.75.75 0 0 0-.75-.75m0-6h-12a.75.75 0 0 0-.75.75v1.5a.75.75 0 0 0 .75.75h12a.75.75 0 0 0 .75-.75v-1.5a.75.75 0 0 0-.75-.75m0 12h-12a.75.75 0 0 0-.75.75v1.5a.75.75 0 0 0 .75.75h12a.75.75 0 0 0 .75-.75v-1.5a.75.75 0 0 0-.75-.75"/>
</svg>
