<svg xmlns="http://www.w3.org/2000/svg" fill="none" viewBox="0 0 24 24">
  <path fill="#201f24" d="M19.5 3h-15A1.5 1.5 0 0 0 3 4.5v15A1.5 1.5 0 0 0 4.5 21h15a1.5 1.5 0 0 0 1.5-1.5v-15A1.5 1.5 0 0 0 19.5 3M6.75 6.75h9a.75.75 0 0 1 0 1.5h-9a.75.75 0 1 1 0-1.5m3.75 10.5H6.75a.75.75 0 0 1 0-1.5h3.75a.75.75 0 0 1 0 1.5m.75-4.5h-4.5a.75.75 0 1 1 0-1.5h4.5a.75.75 0 1 1 0 1.5m7.28 2.78-2.25 2.25a.75.75 0 0 1-.817.163.8.8 0 0 1-.244-.162l-2.25-2.25a.75.75 0 0 1 1.062-1.062l.969.97V11.25a.75.75 0 0 1 1.5 0v4.19l.97-.97a.75.75 0 0 1 1.06 1.06"/>
</svg>
