<svg xmlns="http://www.w3.org/2000/svg" fill="none" viewBox="0 0 24 24">
  <path fill="#201f24" d="M18.75 6v12a1.5 1.5 0 0 1-1.5 1.5h-1.5a1.5 1.5 0 0 1-1.5-1.5v-5.25h-4.5V18a1.5 1.5 0 0 1-1.5 1.5h-1.5a1.5 1.5 0 0 1-1.5-1.5V6a1.5 1.5 0 0 1 1.5-1.5h1.5A1.5 1.5 0 0 1 9.75 6v5.25h4.5V6a1.5 1.5 0 0 1 1.5-1.5h1.5a1.5 1.5 0 0 1 1.5 1.5m-15.375.75H3a1.5 1.5 0 0 0-1.5 1.5v3H.775a.767.767 0 0 0-.775.7.75.75 0 0 0 .75.8h.75v3a1.5 1.5 0 0 0 1.5 1.5h.375a.375.375 0 0 0 .375-.375v-9.75a.375.375 0 0 0-.375-.375M24 11.95a.767.767 0 0 0-.773-.7H22.5v-3a1.5 1.5 0 0 0-1.5-1.5h-.375a.375.375 0 0 0-.375.375v9.75a.375.375 0 0 0 .375.375H21a1.5 1.5 0 0 0 1.5-1.5v-3h.75a.75.75 0 0 0 .75-.8"/>
</svg>
