<svg xmlns="http://www.w3.org/2000/svg" fill="none" viewBox="0 0 24 24">
  <path fill="#201f24" d="M17.25 4.576V3a1.5 1.5 0 0 0-1.5-1.5h-7.5A1.5 1.5 0 0 0 6.75 3v1.576a3.755 3.755 0 0 0-3 3.674v10.5A3.75 3.75 0 0 0 7.5 22.5h9a3.75 3.75 0 0 0 3.75-3.75V8.25a3.755 3.755 0 0 0-3-3.674M11.25 3h1.5v1.5h-1.5zm-3 0h1.5v1.5h-1.5zm4.5 14.25V18a.75.75 0 0 1-1.5 0v-.75h-.75a.75.75 0 0 1 0-1.5h2.25a.75.75 0 0 0 0-1.5h-1.5a2.25 2.25 0 0 1 0-4.5V9a.75.75 0 1 1 1.5 0v.75h.75a.75.75 0 1 1 0 1.5h-2.25a.75.75 0 1 0 0 1.5h1.5a2.25 2.25 0 0 1 0 4.5m3-12.75h-1.5V3h1.5z"/>
</svg>
